<?xml version="1.0" standalone="no"?>
<!DOCTYPE svg PUBLIC "-//W3C//DTD SVG 20010904//EN"
 "http://www.w3.org/TR/2001/REC-SVG-20010904/DTD/svg10.dtd">
<svg version="1.0" xmlns="http://www.w3.org/2000/svg"
 width="315.000000pt" height="393.000000pt" viewBox="0 0 315.000000 393.000000"
 preserveAspectRatio="xMidYMid meet">

<g transform="translate(0.000000,393.000000) scale(0.100000,-0.100000)"
fill="#000000" stroke="none">
<path d="M0 2213 c1 -1555 2 -1715 16 -1683 27 61 43 115 60 196 9 44 25 102
36 129 11 28 19 51 19 53 -4 11 1 22 9 22 6 0 8 -10 5 -23 -4 -13 1 -43 9 -67
11 -31 12 -49 5 -63 -6 -10 -8 -21 -6 -24 3 -2 8 5 12 17 5 15 12 19 23 15 10
-4 33 -9 52 -11 35 -4 35 -4 -7 12 -24 9 -43 21 -43 28 0 6 12 29 26 50 20 29
31 37 46 32 15 -3 18 -2 10 6 -17 17 3 45 55 77 47 29 83 31 83 3 0 -12 3 -13
12 -4 20 20 28 14 28 -18 0 -26 -8 -35 -45 -58 -59 -36 -58 -51 1 -18 26 14
48 26 50 26 2 0 4 -10 5 -22 1 -50 15 -59 15 -11 0 33 7 61 21 84 12 19 34 59
48 90 28 60 39 68 125 95 30 9 60 20 65 24 6 3 33 15 60 25 28 10 55 22 62 27
7 6 19 5 32 -2 17 -9 25 -7 43 9 11 11 24 18 28 16 4 -2 22 0 41 6 19 6 80 11
136 12 66 1 106 6 115 15 9 9 9 12 -2 12 -11 0 -10 4 3 18 15 14 19 15 26 3 7
-11 13 -9 30 8 11 11 21 28 21 36 0 8 7 15 15 15 8 0 15 6 15 13 0 7 14 25 32
40 29 26 36 28 115 25 54 -2 86 1 91 8 4 6 22 15 39 19 18 3 36 12 40 18 5 7
33 21 63 31 30 11 71 27 90 37 33 17 110 84 139 122 21 27 5 20 -27 -11 -64
-63 -152 -110 -152 -82 0 6 -16 4 -37 -6 -45 -19 -174 -11 -197 12 -8 8 -19
14 -25 14 -6 0 -11 5 -11 10 0 6 -7 10 -15 10 -8 0 -22 11 -31 25 -9 13 -23
27 -32 29 -10 3 -23 20 -31 37 -13 29 -12 33 5 46 10 8 29 16 42 20 19 4 22
10 18 29 -5 19 -1 27 18 35 24 11 45 63 32 76 -3 4 -6 -2 -6 -12 0 -17 -1 -17
-20 0 -11 10 -20 24 -20 32 0 20 30 29 41 12 6 -10 9 -10 9 -1 0 7 13 12 30
12 20 0 30 -5 30 -15 0 -12 3 -12 18 3 14 14 36 19 85 20 37 1 67 -2 67 -7 0
-5 9 -7 20 -4 21 6 28 -12 8 -20 -7 -2 -9 -8 -5 -13 9 -10 99 38 98 52 -1 13
-121 21 -159 10 -26 -8 -36 -7 -43 5 -6 10 -9 10 -9 2 0 -8 -15 -13 -40 -13
-22 0 -40 5 -40 11 0 5 -4 8 -8 5 -5 -3 -26 0 -48 6 -21 6 -45 12 -53 12 -17
1 -27 25 -12 27 18 2 24 4 65 22 21 9 42 14 47 11 5 -3 26 7 46 21 21 14 48
25 60 25 12 0 25 5 28 10 10 16 -72 12 -89 -5 -18 -18 -42 -19 -62 -2 -56 46
-65 60 -59 86 4 14 10 28 14 31 19 13 31 53 30 107 0 32 2 87 4 123 5 79 -4
100 -51 121 -83 36 -213 67 -285 69 -11 0 12 41 34 63 11 10 19 32 20 50 0 26
2 28 9 12 6 -17 9 -14 14 18 17 106 17 107 1 107 -8 0 -15 7 -15 15 0 8 7 15
16 15 8 0 13 4 10 9 -7 10 23 90 41 112 7 8 13 26 14 40 0 13 3 18 6 12 8 -21
20 -15 27 12 6 24 9 25 86 25 71 0 85 -3 127 -29 51 -31 71 -37 143 -45 70 -8
121 -23 149 -44 14 -10 41 -27 59 -36 46 -24 87 -62 130 -121 41 -55 61 -116
62 -188 0 -27 4 -46 8 -43 23 14 90 -294 76 -349 -7 -28 7 -33 26 -10 20 24
25 19 38 -38 24 -104 12 -129 -61 -131 l-43 -1 -17 -84 c-19 -99 -62 -195
-109 -246 -25 -28 -35 -49 -40 -88 -12 -100 -8 -196 13 -286 22 -96 22 -212 1
-281 -25 -81 -31 -114 -21 -126 7 -8 6 -14 -1 -19 -5 -3 -10 0 -11 7 0 7 -5 0
-10 -17 -12 -39 -2 -108 23 -162 21 -44 132 -173 150 -173 6 0 -10 22 -34 48
-33 35 -50 65 -63 108 -19 64 -21 144 -6 173 6 10 8 29 5 42 -4 17 -3 20 4 10
7 -10 15 -2 33 33 13 27 26 42 30 35 4 -8 8 -7 11 2 3 8 5 -10 5 -40 1 -37 -2
-49 -9 -40 -8 11 -8 10 -4 -4 3 -10 1 -28 -6 -40 -10 -19 -9 -20 4 -9 13 11
16 6 22 -30 4 -24 8 -55 10 -71 3 -28 41 -77 61 -77 16 0 45 -71 45 -110 0
-31 1 -32 13 -16 12 17 15 14 31 -28 10 -25 18 -49 18 -53 0 -29 62 -47 70
-21 3 7 8 -6 11 -30 5 -26 12 -42 21 -42 18 0 47 -87 49 -147 2 -40 -1 -49
-21 -59 -16 -8 -19 -13 -10 -16 46 -16 67 27 73 153 3 52 9 110 14 129 8 32 9
28 12 -35 2 -59 3 -63 6 -23 2 27 8 48 12 48 15 0 18 -74 5 -130 -7 -30 -11
-56 -9 -58 5 -5 24 66 32 116 l6 43 29 -36 c27 -32 148 -123 148 -111 0 3 16
-9 35 -27 19 -17 35 -37 35 -44 0 -6 4 -15 10 -18 6 -4 7 1 4 12 -5 15 -3 15
13 -3 10 -11 25 -31 34 -45 l17 -24 -2 27 c0 14 -5 24 -10 20 -5 -3 -6 0 -2 6
4 6 0 22 -9 35 -8 13 -12 27 -8 30 11 12 -28 46 -45 40 -14 -4 -14 -3 -3 5 12
9 13 13 1 27 -7 8 -18 14 -24 12 -20 -7 -48 14 -41 31 4 10 -9 30 -37 59 -23
23 -39 46 -35 49 3 4 -9 24 -27 46 -30 34 -34 48 -39 111 -10 134 -27 219 -60
303 -37 90 -33 111 6 42 34 -60 48 -109 57 -197 l7 -76 2 62 c2 108 -27 202
-86 280 -14 18 -26 38 -27 45 -1 7 -5 18 -9 25 -9 15 3 123 14 123 5 0 28 -6
51 -14 24 -8 70 -22 103 -31 85 -24 193 -80 245 -126 24 -21 49 -39 57 -39 7
0 13 -5 13 -11 0 -5 11 -34 24 -62 12 -29 38 -96 55 -149 18 -54 35 -98 37
-98 2 0 4 707 4 1570 l0 1570 -1575 0 -1575 0 0 -1717z m1492 1477 c18 0 28
-5 28 -15 0 -14 28 -10 40 5 14 19 89 17 140 -5 30 -13 59 -21 65 -19 6 3 23
-6 38 -20 15 -14 27 -22 28 -18 0 4 4 -1 7 -11 7 -15 12 -14 46 15 l39 32 -5
-27 c-3 -15 -1 -30 4 -33 4 -3 6 -10 3 -15 -4 -5 12 -9 34 -9 37 0 41 -2 41
-25 0 -18 11 -32 40 -51 46 -31 55 -60 15 -50 -14 4 -25 2 -25 -3 0 -19 -31
-19 -64 0 -47 28 -206 78 -212 67 -4 -5 -13 -6 -23 -3 -56 22 -122 33 -148 24
-26 -8 -26 -9 6 -4 19 3 32 2 28 -1 -3 -4 -50 -13 -104 -21 -54 -8 -103 -19
-109 -24 -6 -5 -30 -11 -54 -14 -47 -6 -63 -15 -42 -22 19 -7 14 -21 -10 -29
-26 -8 -198 -172 -198 -188 0 -7 -17 -26 -37 -43 -21 -17 -48 -41 -60 -52 -12
-12 -27 -21 -33 -21 -5 0 -10 -5 -10 -11 0 -6 -7 -17 -15 -26 -9 -8 -13 -23
-10 -34 4 -13 -4 -28 -29 -50 -20 -17 -34 -35 -31 -39 3 -4 -2 -10 -10 -14 -8
-3 -17 -1 -20 4 -4 6 -1 10 5 10 6 0 8 5 5 10 -10 17 -25 1 -25 -27 0 -15 -8
-50 -17 -79 -14 -46 -15 -61 -4 -106 12 -51 11 -56 -22 -143 -20 -49 -40 -119
-46 -155 -7 -36 -14 -78 -17 -94 -5 -21 -3 -27 6 -21 17 11 7 -55 -19 -121
-53 -136 -61 -203 -41 -373 8 -74 7 -87 -7 -103 -11 -13 -12 -18 -3 -18 20 0
7 -65 -30 -145 -47 -105 -53 -115 -62 -115 -5 0 -7 -4 -3 -9 3 -5 -1 -16 -9
-24 -8 -8 -18 -26 -21 -40 -7 -28 -28 -37 -65 -26 -16 4 -19 7 -7 8 21 1 21 4
3 44 -14 31 -19 67 -32 210 -6 56 -10 67 -25 67 -15 0 -19 8 -19 40 0 22 4 40
9 40 5 0 12 35 16 78 4 42 12 80 17 83 6 4 2 22 -10 45 -22 42 -26 73 -23 176
1 59 3 66 20 61 21 -5 38 26 20 37 -8 6 -8 9 1 15 6 4 17 2 22 -3 8 -8 16 -1
30 23 22 42 22 45 3 45 -11 0 -15 11 -15 40 0 40 0 40 38 40 32 0 39 5 55 36
9 19 15 39 12 44 -3 5 1 23 10 39 8 16 12 37 8 46 -5 15 -3 15 15 4 12 -7 24
-11 27 -7 3 3 8 58 12 122 4 84 3 116 -5 116 -7 0 -12 -11 -12 -25 0 -16 -6
-25 -15 -25 -19 0 -19 24 0 40 8 7 15 18 15 24 0 6 18 31 40 56 22 24 40 55
40 67 0 13 5 23 10 23 6 0 10 37 10 90 0 71 3 91 16 98 21 12 64 3 71 -14 9
-25 38 -15 57 20 10 19 15 39 12 44 -10 16 4 41 20 35 9 -3 14 2 14 14 0 37
31 136 46 147 8 7 18 32 21 56 3 25 13 59 22 75 l16 30 5 -40 5 -40 16 25 c9
14 22 41 29 60 10 29 20 38 53 49 22 7 54 25 71 42 29 28 33 29 128 29 70 0
98 3 98 12 0 9 3 9 12 0 7 -7 25 -12 40 -12z m659 -277 c1 -21 3 -31 6 -22 3
14 8 15 28 5 27 -12 31 -26 15 -42 -8 -8 -6 -15 5 -24 17 -14 20 -40 5 -40 -5
0 -10 4 -10 10 0 5 -21 23 -46 39 -26 16 -41 30 -35 32 6 2 12 21 13 42 2 48
18 48 19 0z m29 33 c0 -3 -4 -8 -10 -11 -5 -3 -10 -1 -10 4 0 6 5 11 10 11 6
0 10 -2 10 -4z m280 -16 c0 -11 5 -20 10 -20 6 0 10 5 10 11 0 8 5 8 15 -1 10
-8 12 -18 6 -28 -5 -8 -6 -23 -3 -34 3 -13 -2 -21 -16 -25 -16 -4 -23 -16 -28
-50 -4 -30 -9 -41 -15 -32 -7 12 -11 11 -23 -1 -7 -8 -17 -26 -21 -40 -5 -19
-4 -21 4 -10 8 11 11 5 11 -27 0 -35 3 -43 19 -43 24 0 34 -57 18 -99 -10 -26
-8 -33 11 -54 22 -24 30 -67 12 -67 -5 0 -10 7 -10 15 0 9 -9 34 -20 56 -12
22 -18 44 -15 49 3 5 -5 22 -19 37 -29 31 -32 43 -15 60 9 9 7 11 -8 7 -22 -6
-49 35 -40 60 5 11 0 16 -14 16 -17 0 -19 4 -14 34 5 22 3 36 -6 41 -8 6 -11
1 -7 -17 3 -17 1 -25 -8 -24 -15 2 -44 26 -44 36 0 9 58 25 76 22 7 -2 13 21
16 58 7 100 30 97 36 -5 5 -82 22 -85 22 -5 0 33 4 60 10 60 6 0 10 9 10 20 0
13 7 20 20 20 13 0 20 -7 20 -20z m-380 -10 c0 -5 -5 -10 -11 -10 -5 0 -7 5
-4 10 3 6 8 10 11 10 2 0 4 -4 4 -10z m30 -20 c0 -22 -1 -23 -24 -14 -13 5
-14 9 -5 20 16 20 29 17 29 -6z m450 -330 c0 -16 7 -20 30 -20 28 0 30 -2 30
-41 0 -37 2 -40 23 -35 12 3 16 3 10 0 -7 -3 -13 -11 -13 -17 -1 -7 -10 -23
-21 -37 -19 -22 -22 -23 -30 -7 -6 10 -14 15 -20 12 -5 -4 -9 5 -9 19 0 14 -5
26 -11 26 -7 0 -10 -15 -7 -40 2 -27 0 -36 -7 -29 -5 5 -12 44 -15 85 -4 57
-2 78 10 89 20 20 30 19 30 -5z m117 -162 c-2 -13 -4 -3 -4 22 0 25 2 35 4 23
2 -13 2 -33 0 -45z m-157 -39 c0 -15 5 -19 19 -14 14 4 20 0 23 -20 3 -14 1
-25 -3 -25 -5 0 -9 -12 -9 -26 0 -14 4 -23 9 -19 16 9 25 -16 22 -63 -1 -27 3
-48 10 -53 17 -10 2 -41 -18 -37 -10 2 -19 14 -21 28 -2 14 -8 30 -14 35 -7 7
-8 -1 -3 -24 4 -20 3 -31 -2 -28 -5 3 -15 32 -22 64 -7 32 -16 69 -21 83 -5
14 -11 46 -13 73 -4 44 -3 47 19 47 18 0 24 -6 24 -21z m-1660 -64 c0 -8 -4
-15 -10 -15 -5 0 -10 7 -10 15 0 8 5 15 10 15 6 0 10 -7 10 -15z m-83 -317
c-3 -8 -6 -5 -6 6 -1 11 2 17 5 13 3 -3 4 -12 1 -19z m643 -2 c0 -7 -8 -20
-17 -27 -15 -12 -16 -12 -10 4 4 10 7 23 7 28 0 5 5 9 10 9 6 0 10 -6 10 -14z
m-193 -55 c25 -13 68 -24 111 -28 85 -7 120 -28 103 -62 -7 -12 -10 -25 -7
-30 12 -19 -45 -105 -106 -159 -78 -71 -162 -4 -160 126 1 46 -2 57 -25 78
-14 13 -29 24 -33 24 -13 0 -19 42 -10 60 13 23 73 19 127 -9z m188 -3 c-6
-15 -35 -21 -35 -6 0 4 7 8 15 8 8 0 15 5 15 12 0 6 2 9 5 6 3 -3 3 -12 0 -20z
m-45 -8 c0 -5 -5 -10 -11 -10 -5 0 -7 5 -4 10 3 6 8 10 11 10 2 0 4 -4 4 -10z
m1239 -25 c-7 -7 -13 -5 -19 5 -15 24 -11 31 10 18 13 -9 16 -16 9 -23z m73
-44 c3 -3 8 -15 10 -26 2 -11 13 -24 26 -30 16 -7 22 -18 22 -42 0 -18 5 -33
10 -33 6 0 10 -11 10 -25 0 -16 6 -25 15 -25 8 0 15 5 15 11 0 12 40 8 73 -6
13 -5 17 -2 17 13 0 11 6 22 14 25 16 6 36 -11 36 -30 0 -7 7 -13 15 -13 11 0
15 -11 15 -40 0 -22 5 -40 10 -40 6 0 10 23 10 50 0 36 4 50 14 50 17 0 26
-22 26 -66 0 -19 5 -34 10 -34 6 0 10 -18 10 -40 0 -33 -3 -40 -20 -40 -11 0
-20 -5 -20 -12 0 -9 -3 -9 -12 0 -21 21 -28 13 -28 -28 0 -22 -4 -40 -9 -40
-5 0 -11 -9 -14 -20 -3 -11 -10 -20 -17 -20 -7 0 -14 9 -17 20 -4 14 -14 20
-34 20 -27 0 -29 -3 -29 -40 0 -33 3 -40 20 -40 13 0 20 -7 20 -19 0 -24 -67
-94 -91 -96 -11 -1 -30 -12 -44 -25 -23 -22 -25 -31 -25 -111 l0 -88 -27 -3
c-24 -2 -28 -7 -26 -30 1 -19 -3 -28 -13 -28 -8 0 -14 -7 -14 -15 0 -8 5 -15
10 -15 13 0 29 -41 23 -57 -6 -15 -42 -17 -76 -4 -24 9 -37 33 -43 76 -1 11
-7 32 -12 46 -6 15 -10 87 -8 160 1 74 -2 164 -7 201 -7 52 -5 89 9 160 10 51
19 155 22 231 l4 138 56 -7 c31 -3 60 -9 64 -13z m285 -93 c-3 -7 -5 -2 -5 12
0 14 2 19 5 13 2 -7 2 -19 0 -25z m-1687 -277 c0 -11 5 -23 11 -26 6 -5 4 -11
-7 -19 -16 -12 -15 -17 10 -69 14 -31 26 -66 26 -79 0 -22 -1 -22 -26 7 -15
17 -38 55 -51 85 -14 30 -31 70 -40 88 -15 34 -8 52 27 64 19 7 50 -25 50 -51z
m1111 23 c9 -11 2 -9 -18 6 -18 13 -33 25 -33 27 0 8 38 -17 51 -33z m-1604
-36 c-2 -13 -4 -3 -4 22 0 25 2 35 4 23 2 -13 2 -33 0 -45z m1638 -19 c9 -17
15 -34 13 -39 -2 -5 -11 9 -20 30 -20 47 -15 53 7 9z m-2028 -81 c-2 -13 -4
-3 -4 22 0 25 2 35 4 23 2 -13 2 -33 0 -45z m1785 -157 c18 -11 29 -21 23 -21
-32 0 -105 76 -105 110 0 8 11 -4 25 -26 14 -23 40 -51 57 -63z m-1087 19 c-3
-5 -12 -10 -18 -10 -7 0 -6 4 3 10 19 12 23 12 15 0z m-42 -17 c-7 -2 -19 -2
-25 0 -7 3 -2 5 12 5 14 0 19 -2 13 -5z m727 -137 c0 -3 -4 -8 -10 -11 -5 -3
-10 -1 -10 4 0 6 5 11 10 11 6 0 10 -2 10 -4z m1017 -148 c-3 -8 -6 -5 -6 6
-1 11 2 17 5 13 3 -3 4 -12 1 -19z m-270 -130 c-3 -8 -6 -5 -6 6 -1 11 2 17 5
13 3 -3 4 -12 1 -19z m-2077 -48 c-24 -15 -36 -11 -14 4 10 8 21 12 24 10 2
-3 -2 -9 -10 -14z m70 -210 c-12 -37 -30 -46 -30 -14 0 17 32 65 39 58 2 -2
-2 -22 -9 -44z m1670 -30 c0 -5 -2 -10 -4 -10 -3 0 -8 5 -11 10 -3 6 -1 10 4
10 6 0 11 -4 11 -10z m-1925 -30 c-10 -11 -23 -20 -29 -20 -6 1 0 10 13 20 30
26 39 26 16 0z m222 -2 c-3 -8 -6 -5 -6 6 -1 11 2 17 5 13 3 -3 4 -12 1 -19z
m2073 -28 c6 -20 6 -30 1 -24 -11 10 -27 72 -17 63 4 -4 11 -21 16 -39z m39
-28 c5 -20 12 -66 15 -102 5 -64 5 -63 -19 35 -28 117 -28 118 -15 110 5 -3
14 -23 19 -43z m-2378 -19 c-10 -21 -26 -47 -35 -58 -13 -17 -15 -18 -16 -3 0
23 21 68 32 68 5 0 7 4 3 9 -5 9 26 33 33 26 2 -2 -6 -20 -17 -42z m2422 -193
l7 -45 -20 35 c-20 36 -28 67 -10 40 8 -13 10 -12 10 4 0 31 7 14 13 -34z
m-176 -52 c-3 -8 -6 -5 -6 6 -1 11 2 17 5 13 3 -3 4 -12 1 -19z m-30 -130 c-3
-8 -6 -5 -6 6 -1 11 2 17 5 13 3 -3 4 -12 1 -19z m83 2 c0 -11 -2 -20 -4 -20
-2 0 -6 9 -9 20 -3 11 -1 20 4 20 5 0 9 -9 9 -20z m200 -5 c13 -14 21 -25 18
-25 -2 0 -15 11 -28 25 -13 14 -21 25 -18 25 2 0 15 -11 28 -25z"/>
<path d="M1226 3409 c-20 -13 -56 -46 -56 -54 0 -3 7 -5 15 -5 8 0 15 7 15 15
0 8 3 15 8 15 4 0 18 9 32 20 27 21 17 27 -14 9z"/>
<path d="M1070 3225 c0 -8 5 -15 10 -15 6 0 10 7 10 15 0 8 -4 15 -10 15 -5 0
-10 -7 -10 -15z"/>
<path d="M1010 3180 c0 -5 5 -10 10 -10 6 0 10 5 10 10 0 6 -4 10 -10 10 -5 0
-10 -4 -10 -10z"/>
<path d="M980 3145 c-7 -8 -8 -15 -2 -15 5 0 15 7 22 15 7 8 8 15 2 15 -5 0
-15 -7 -22 -15z"/>
<path d="M866 3025 c-3 -9 -2 -24 4 -33 6 -11 10 -12 10 -4 0 7 11 17 25 22
14 5 25 14 25 20 0 14 -13 13 -28 -2 -10 -10 -15 -10 -21 0 -7 11 -10 10 -15
-3z"/>
<path d="M790 2733 c0 -13 5 -23 10 -23 13 0 13 11 0 30 -8 12 -10 11 -10 -7z"/>
<path d="M2412 3353 c2 -10 10 -18 18 -18 8 0 16 8 18 18 2 12 -3 17 -18 17
-15 0 -20 -5 -18 -17z"/>
<path d="M2510 2800 c0 -5 5 -10 10 -10 6 0 10 5 10 10 0 6 -4 10 -10 10 -5 0
-10 -4 -10 -10z"/>
<path d="M2840 2160 c0 -5 5 -10 10 -10 6 0 10 5 10 10 0 6 -4 10 -10 10 -5 0
-10 -4 -10 -10z"/>
<path d="M2785 1780 c-3 -5 -1 -10 4 -10 6 0 11 5 11 10 0 6 -2 10 -4 10 -3 0
-8 -4 -11 -10z"/>
<path d="M1823 2620 c-13 -5 -23 -14 -23 -20 0 -6 -13 -16 -30 -21 -20 -7 -30
-18 -31 -32 -1 -12 -3 -37 -5 -54 -2 -30 0 -32 22 -27 25 6 35 -10 12 -19 -9
-3 -7 -10 7 -21 20 -17 20 -17 -5 -12 -22 5 -21 4 5 -9 17 -8 56 -14 90 -13
l60 1 -45 7 c-25 4 -35 8 -23 8 28 2 39 19 16 24 -15 3 -14 5 5 10 12 3 20 2
17 -2 -9 -15 18 -17 54 -4 20 7 53 10 74 7 20 -3 37 -2 37 3 0 11 -93 97 -109
100 -18 3 -36 22 -28 30 7 8 45 9 77 2 14 -3 19 -3 13 -1 -7 3 -13 8 -13 12 0
24 -137 48 -177 31z m-33 -64 c0 -2 -8 -10 -17 -17 -16 -13 -17 -12 -4 4 13
16 21 21 21 13z m105 -56 c3 -5 1 -10 -4 -10 -6 0 -11 5 -11 10 0 6 2 10 4 10
3 0 8 -4 11 -10z m50 -25 c0 -10 -6 -20 -12 -22 -8 -3 -13 5 -13 22 0 17 5 25
13 23 6 -3 12 -13 12 -23z m-126 -12 c10 -19 9 -22 -4 -17 -8 4 -15 15 -15 27
0 23 2 22 19 -10z"/>
<path d="M1770 2216 c0 -30 37 -90 84 -136 25 -24 46 -52 46 -61 0 -10 5 -19
11 -21 5 -2 14 -29 18 -61 4 -31 11 -60 15 -64 14 -14 27 22 21 60 -4 29 -2
37 10 37 11 0 15 11 15 40 0 30 -5 42 -22 51 -13 7 -28 17 -34 23 -160 150
-164 153 -164 132z"/>
<path d="M1545 1831 c3 -6 22 -11 42 -11 44 0 41 5 -10 14 -27 5 -37 4 -32 -3z"/>
<path d="M300 856 c0 -2 7 -7 16 -10 8 -3 12 -2 9 4 -6 10 -25 14 -25 6z"/>
<path d="M2800 446 c0 -2 8 -10 18 -17 15 -13 16 -12 3 4 -13 16 -21 21 -21
13z"/>
<path d="M2910 329 c0 -3 11 -20 25 -39 14 -19 25 -29 25 -23 0 12 -49 73 -50
62z"/>
<path d="M699 218 c0 -51 -4 -115 -8 -143 l-7 -50 -13 30 c-17 42 -71 125 -81
125 -5 0 7 -26 26 -57 18 -31 37 -71 40 -90 6 -29 10 -33 39 -33 l32 0 11 94
c16 124 15 151 -3 166 -8 7 -15 21 -15 31 0 11 -4 19 -10 19 -6 0 -10 -38 -11
-92z"/>
<path d="M512 258 c2 -6 10 -14 16 -16 7 -2 10 2 6 12 -7 18 -28 22 -22 4z"/>
<path d="M2957 243 c-4 -3 -2 -12 4 -19 6 -8 11 -37 12 -66 0 -49 1 -51 9 -20
5 20 5 47 -2 72 -11 42 -13 44 -23 33z"/>
<path d="M552 210 c7 -11 16 -20 20 -20 5 0 3 9 -4 20 -7 11 -16 20 -20 20 -5
0 -3 -9 4 -20z"/>
<path d="M2940 205 c0 -5 5 -17 10 -25 5 -8 10 -10 10 -5 0 6 -5 17 -10 25 -5
8 -10 11 -10 5z"/>
</g>
</svg>
